<?xml version="1.0" encoding="utf-8"?>
<!-- Generator: Adobe Illustrator 23.0.1, SVG Export Plug-In . SVG Version: 6.00 Build 0)  -->
<svg version="1.1" id="Layer_1" xmlns="http://www.w3.org/2000/svg" xmlns:xlink="http://www.w3.org/1999/xlink" x="0px" y="0px"
	 viewBox="0 0 84.4 84.4" style="enable-background:new 0 0 84.4 84.4;" xml:space="preserve">
<title>mc</title>
<path style="fill:#FFAFE2;" d="M84.4,42.1c0-6.3-5.1-11.4-11.4-11.4c0,0,0,0,0,0h-3.4l2.4-2.4c4.4-4.4,4.4-11.6,0-16.1
	c-4.4-4.4-11.6-4.4-16.1,0l-2.4,2.4v-3.4C53.5,5,48.4-0.1,42.1,0c-6.2,0.1-11.2,5.1-11.3,11.3v3.4l-2.4-2.4
	C24,7.9,16.8,7.9,12.4,12.4c-4.4,4.4-4.4,11.5,0,16l2.4,2.4h-3.4C5.1,30.7,0,35.8,0,42.1s5.1,11.4,11.4,11.4h3.4l-2.4,2.4
	C8,60.4,8,67.6,12.5,72c4.4,4.4,11.5,4.4,16,0l2.4-2.4V73c-0.1,6.3,5,11.4,11.3,11.5s11.4-5,11.5-11.3c0-0.1,0-0.1,0-0.2v-3.4L56,72
	c4.5,4.4,11.7,4.4,16.1-0.1c4.4-4.4,4.4-11.5,0-16l-2.4-2.4h3.4C79.3,53.5,84.4,48.4,84.4,42.1C84.4,42.1,84.4,42.1,84.4,42.1z"/>
<path style="fill:#FDD145;" d="M84.4,42.1c0-6.3-5.1-11.4-11.4-11.4c0,0,0,0,0,0h-3.4l2.4-2.4c4.4-4.4,4.4-11.6,0-16.1
	c-4.4-4.4-11.6-4.4-16.1,0l-2.4,2.4v-3.4C53.5,5,48.4-0.1,42.1,0c-6.2,0.1-11.2,5.1-11.3,11.3v3.4l-2.4-2.4
	C24,7.9,16.8,7.9,12.4,12.4c-4.4,4.4-4.4,11.5,0,16l2.4,2.4h-3.4C5.1,30.7,0,35.8,0,42.1s5.1,11.4,11.4,11.4h3.4l-2.4,2.4
	C8,60.4,8,67.6,12.5,72c4.4,4.4,11.5,4.4,16,0l2.4-2.4V73c-0.1,6.3,5,11.4,11.3,11.5s11.4-5,11.5-11.3c0-0.1,0-0.1,0-0.2v-3.4L56,72
	c4.5,4.4,11.7,4.4,16.1-0.1c4.4-4.4,4.4-11.5,0-16l-2.4-2.4h3.4C79.3,53.5,84.4,48.4,84.4,42.1C84.4,42.1,84.4,42.1,84.4,42.1z"/>
<path d="M16.3,47.1c-1.7-1.2-2.7-3.2-2.6-5.3c0-1.7,0.6-3.3,1.7-4.6c0.5-0.5,1.2-1,1.8-1.3c1.4-0.7,2.9-1,4.5-1
	c0.9,0,1.9,0.1,2.8,0.2c0.7,0.1,1.5,0.3,2.2,0.6l0,5.5c-0.5-0.4-1.1-0.7-1.7-0.9c-0.7-0.2-1.5-0.4-2.2-0.4c-0.9,0-1.8,0.1-2.7,0.5
	c-0.6,0.2-1,0.8-1,1.4c0,1.2,1.3,1.8,3.8,1.8c0.9,0,1.8-0.1,2.7-0.5c0.8-0.3,1.4-0.6,2.1-1.1v6c-1,0.2-1.9,0.4-2.8,0.5
	c-1,0.1-2.1,0.2-3.1,0.2C19.8,48.7,17.9,48.2,16.3,47.1z"/>
<path d="M29,42.7v-2c0-1,0-2-0.1-3c-0.1-0.9-0.2-1.7-0.4-2.6h6.2c-0.2,0.9-0.3,1.7-0.4,2.6c-0.1,1-0.1,2.1-0.1,3v0.4
	c0,1.6,0.5,2.3,1.6,2.3c1.1,0,1.6-0.8,1.6-2.3v-0.4c0-1,0-2-0.1-3c-0.1-0.9-0.2-1.7-0.4-2.6h6.2c-0.2,0.9-0.3,1.7-0.4,2.6
	c-0.1,1-0.1,2.1-0.1,3v2c0,3.9-2.4,6-6.8,6C31.9,48.7,29,47.1,29,42.7z"/>
<path d="M47.2,48.4c0.2-0.9,0.3-1.7,0.4-2.6c0.1-1,0.1-2,0.1-3v-2.5h-1.4c-1,0-2,0.2-2.8,0.8l0.9-6h11.7l0.9,6
	c-0.8-0.5-1.8-0.8-2.8-0.8h-1.2v2.5c0,1,0,2,0.1,3c0.1,0.9,0.2,1.7,0.4,2.6L47.2,48.4z"/>
<path d="M57.4,48.4c0.2-0.9,0.3-1.7,0.4-2.6c0.1-1,0.1-2.1,0.1-3v-2.1c0-0.9,0-1.9-0.1-3c-0.1-0.9-0.2-1.7-0.4-2.6H69l0.8,5.8
	c-0.3-0.3-0.8-0.5-1.2-0.5c-0.8-0.1-1.6-0.2-2.4-0.1h-3v0.9h2.2c1,0,1.9,0,2.5-0.1v1.7c-0.8-0.1-1.7-0.1-2.5-0.1h-2.2v0.7h2.3
	c1.1,0,2.3,0,3.4-0.2c0.6-0.1,1.1-0.3,1.5-0.6l-0.8,6L57.4,48.4z"/>
</svg>
