<?xml version="1.0" encoding="utf-8"?>
<!-- Generator: Adobe Illustrator 23.0.1, SVG Export Plug-In . SVG Version: 6.00 Build 0)  -->
<svg version="1.1" id="Layer_1" xmlns="http://www.w3.org/2000/svg" xmlns:xlink="http://www.w3.org/1999/xlink" x="0px" y="0px"
	 viewBox="0 0 84.4 84.4" style="enable-background:new 0 0 84.4 84.4;" xml:space="preserve">
<title>mc</title>
<circle style="fill:#FDD145;" cx="42.2" cy="42.2" r="42.2"/>
<path d="M11.5,45.3c0.1-0.5,0.2-1.1,0.2-1.7c0.1-0.7,0.1-1.3,0.1-1.9v-1.3c0-0.6,0-1.2-0.1-1.9c0-0.6-0.1-1.1-0.2-1.7H19l0.5,3.7
	c-0.2-0.2-0.5-0.3-0.8-0.3c-0.5-0.1-1-0.1-1.5-0.1h-2.1v0.6h1.4c0.7,0,1.2,0,1.6,0v1.1c-0.5,0-1.1-0.1-1.6-0.1h-1.4v0.1
	c0,0.6,0,1.2,0.1,1.9c0,0.5,0.1,1.1,0.2,1.6H11.5z"/>
<path d="M26.2,44.8c-0.3-0.5-0.6-1-0.8-1.6c-0.3-0.8-0.5-1.5-1.2-1.5c-0.1,0-0.1,0-0.2,0.1v0.1c0,0.6,0,1.3,0.1,1.9
	c0,0.6,0.1,1.1,0.2,1.6h-4c0.1-0.5,0.2-1.1,0.2-1.6c0.1-0.7,0.1-1.3,0.1-1.9v-1.3c0-0.6,0-1.3-0.1-1.9c0-0.6-0.1-1.1-0.2-1.6h5.5
	c0.9,0,1.7,0.1,2.5,0.5c0.6,0.3,1,1,1,1.7c0,1.5-1.5,2.2-3.4,2.2h0v0.1h0c0.3,0,0.5,0.1,0.8,0.2c0.3,0.1,0.7,0.2,1,0.2
	c0.4,0,0.9-0.1,1.2-0.4c0.3-0.3,0.6-0.7,0.8-1.1v4.4c-0.1,0.3-0.4,0.5-0.7,0.7c-0.3,0.2-0.7,0.3-1,0.3
	C27.2,45.6,26.6,45.3,26.2,44.8z M23.9,41h1.2c0.4,0,0.7-0.2,0.7-0.5S25.6,40,25.2,40h-1.2V41z"/>
<path d="M30.3,45.3c0.1-0.5,0.2-1.1,0.2-1.6c0.1-0.7,0.1-1.3,0.1-1.9v-1.3c0-0.6,0-1.3-0.1-1.9c0-0.6-0.1-1.1-0.2-1.6h4
	c-0.1,0.5-0.2,1.1-0.2,1.6C34,39.2,34,39.8,34,40.4v1.3c0,0.6,0,1.3,0.1,1.9c0,0.6,0.1,1.1,0.2,1.6H30.3z"/>
<path d="M35.3,45.3c0.1-0.5,0.2-1.1,0.2-1.7c0.1-0.7,0.1-1.3,0.1-1.9v-1.3c0-0.6,0-1.2-0.1-1.9c0-0.6-0.1-1.1-0.2-1.7h7.4l0.5,3.7
	c-0.2-0.2-0.5-0.3-0.8-0.3c-0.5-0.1-1-0.1-1.5-0.1H39v0.5h1.4c0.7,0,1.2,0,1.6-0.1v1.1c-0.5,0-1.1-0.1-1.6-0.1H39v0.5h1.4
	c0.7,0,1.5,0,2.2-0.1c0.4-0.1,0.7-0.2,1-0.4l-0.5,3.8L35.3,45.3z"/>
<path d="M44.4,45.3c0.1-0.5,0.2-1.1,0.2-1.6c0.1-0.7,0.1-1.3,0.1-1.9v-1.3c0-0.6,0-1.3-0.1-1.9c0-0.6-0.1-1.1-0.2-1.6l3.6,0l2.3,3.7
	h0.2v-0.2c0-0.6,0-1.2-0.1-1.9c0-0.5-0.1-1.1-0.2-1.6h4c-0.1,0.5-0.2,1.1-0.2,1.6c-0.1,0.7-0.1,1.3-0.1,1.9v4.9h-3.1l-2.4-4h-0.2
	v0.2c0,0.6,0,1.3,0.1,2.1c0,0.6,0.1,1.2,0.2,1.7L44.4,45.3z"/>
<path d="M55.2,45.3c0.1-0.5,0.2-1.1,0.2-1.7c0.1-0.7,0.1-1.3,0.1-1.9v-1.3c0-0.6,0-1.2-0.1-1.9c0-0.6-0.1-1.1-0.2-1.7h4.3
	c2.7,0,4.5,1.4,4.5,4.2c0.1,1.2-0.4,2.4-1.2,3.2c-0.9,0.7-2.1,1.1-3.3,1L55.2,45.3z M58.8,42.1h0.8c0.2,0,0.5-0.1,0.7-0.2
	c0.2-0.2,0.3-0.5,0.3-0.7c0-0.3-0.1-0.5-0.3-0.7c-0.2-0.2-0.4-0.3-0.7-0.2h-0.8V42.1z"/>
<path d="M66.5,45.3c-0.7-0.1-1.5-0.3-2.2-0.5l0.1-3.8c0.5,0.5,1.2,0.8,1.9,1c0.7,0.2,1.5,0.3,2.3,0.3c0.9,0,1.4-0.1,1.4-0.4
	c0-0.8-5.5,0.5-5.5-2.6c0-0.9,0.5-1.7,1.3-2c1-0.5,2.1-0.7,3.2-0.6c0.6,0,1.3,0.1,1.9,0.2c0.6,0.1,1.1,0.2,1.6,0.4v3.7
	c-0.4-0.3-1-0.6-1.5-0.7c-0.6-0.2-1.3-0.3-1.9-0.3c-0.3,0-0.7,0-1,0.1c-0.3,0.1-0.4,0.2-0.4,0.3c0,0.6,1.4,0.5,2.8,0.6
	c0.7,0,1.3,0.2,1.9,0.5c0.6,0.3,0.9,0.9,0.9,1.5c0,1.1-0.8,2-1.9,2.2c-0.9,0.3-1.8,0.4-2.7,0.3C68,45.5,67.2,45.4,66.5,45.3z"/>
</svg>
