<svg data-name="Ring badge"
    xmlns="http://www.w3.org/2000/svg" viewBox="0 0 123.683 160.866">
    <path data-name="Path 99" d="M1418.7,2081.4l-11.171,10.22,3.8,14.26,29.471,13.785,43.018-11.408,1.664-8.556v-15.686l-25.266-17.456Z" transform="translate(-1400.924 -2065.56)" fill="#FC212E" fill-rule="evenodd"></path>
    <g data-name="Group 68" transform="translate(-1400.924 -2065.56)">
        <path data-name="Path 100" d="M1454.376,2188.982s.089,23.57,17.541,32.159c15.592,7.674,20.83,3.654,21.2-1.1s-3.289-5.847-8.405-6.944-22.657-6.212-17.541-28.5S1454.376,2188.982,1454.376,2188.982Z" fill="#148f67" fill-rule="evenodd"></path>
        <path data-name="Path 101" d="M1486.146,2226.426c-3.256,0-7.946-1.078-14.671-4.388-7.386-3.635-12.859-10.515-15.827-19.9a48.576,48.576,0,0,1-2.272-13.156v-.306l.17-.255c3.068-4.57,10.575-15.041,14.028-13.546,1.817.786,1.987,3.759.568,9.942-1.669,7.272-1.01,13.323,1.96,17.987,3.94,6.187,10.974,8.492,14.816,9.316,4.522.969,9.648,2.067,9.192,8a6.357,6.357,0,0,1-3.2,5.217A9.461,9.461,0,0,1,1486.146,2226.426Zm-30.763-37.149c.095,2.725,1.336,23.27,16.975,30.967,10.951,5.39,15.7,4.417,17.561,3.357a4.387,4.387,0,0,0,2.2-3.633c.29-3.775-2.22-4.732-7.617-5.889-4.148-.889-11.752-3.4-16.084-10.2-3.268-5.132-4.016-11.7-2.223-19.508,1.577-6.868.593-7.654.583-7.662C1465.514,2176.306,1460.124,2182.266,1455.383,2189.277Z">
        </path>
    </g>
    <g data-name="Group 69" transform="translate(-1400.924 -2065.56)">
        <path data-name="Path 102" d="M1496.279,2169.858c.731.731,15.836,6.578,15.1,20.952s-7.4,18.271-4.142,21.926c3.8,4.26,12.669,0,14.861-11.938s5.117-24.606-16.079-38.493S1496.279,2169.858,1496.279,2169.858Z" fill="#148f67" fill-rule="evenodd"></path>
        <path data-name="Path 103" d="M1510.909,2215.348a5.778,5.778,0,0,1-4.413-1.947c-2.008-2.252-1.041-4.56.3-7.755a40.367,40.367,0,0,0,3.591-14.887c.6-11.848-10.095-17.575-13.611-19.457a5.406,5.406,0,0,1-1.2-.737l-.175-.236c-.887-1.661-5.159-10.09-2.111-12.877,2.037-1.864,6.259-.587,13.286,4.017,21.246,13.919,18.816,27.06,16.673,38.654l-.158.856c-1.6,8.74-6.479,13.048-10.164,14.081A7.471,7.471,0,0,1,1510.909,2215.348Zm-13.861-46.175c.16.092.427.235.67.366,10.173,5.446,15.107,12.619,14.665,21.321a42.729,42.729,0,0,1-3.744,15.558c-1.352,3.226-1.763,4.405-.65,5.652a4.1,4.1,0,0,0,4.394,1.064c3.131-.877,7.3-4.682,8.737-12.517l.158-.857c2.129-11.518,4.331-23.427-15.8-36.618-8.349-5.471-10.408-4.609-10.84-4.214C1493.263,2160.182,1495.232,2165.7,1497.048,2169.173Z">
        </path>
    </g>
    <g data-name="Group 70" transform="translate(-1400.924 -2065.56)">
        <path data-name="Path 104" d="M1419.781,2173.269s-3.9,11.206,9.5,17.053,46.045-5.359,59.932-13.155c15.2-8.534,40.2-27.774,27.773-41.66" fill="#148f67" fill-rule="evenodd"></path>
        <path data-name="Path 105" d="M1438.907,2192.925a25.463,25.463,0,0,1-10.025-1.686c-14.085-6.146-10.088-18.178-10.046-18.3l1.89.657-.945-.328.945.326c-.144.423-3.4,10.42,8.956,15.811,5.673,2.475,16.017,1.938,29.129-1.512,10.581-2.785,22.323-7.338,29.914-11.6,12.914-7.25,28.636-19.578,30.445-30.463a11.04,11.04,0,0,0-2.928-9.658l1.491-1.333a13.09,13.09,0,0,1,3.41,11.319c-1.925,11.583-18.139,24.413-31.439,31.88C1478.525,2184.314,1454.9,2192.924,1438.907,2192.925Z">
        </path>
    </g>
    <g data-name="Group 71" transform="translate(-1400.924 -2065.56)">
        <path data-name="Path 106" d="M1432.449,2154.022s-20.22,14.861-9.745,28.748,45.309-.287,64.805-10.963c20.464-11.207,36.3-25.094,28.017-40.2s-73.332,4.385-73.332,4.385Z" fill="#148f67" fill-rule="evenodd"></path>
        <path data-name="Path 107" d="M1437.5,2189.471c-6.817,0-12.346-1.789-15.6-6.1a14.8,14.8,0,0,1-3.048-11.393c1.408-9.613,11.286-17.461,12.816-18.625l9.837-18.2.4-.119c2.688-.8,65.922-19.542,74.495-3.908,4.031,7.349,2.911,14.977-3.328,22.671-4.981,6.144-13.421,12.5-25.085,18.885C1471.617,2181.649,1451.753,2189.47,1437.5,2189.471Zm5.373-52.637-9.654,17.861-.181.133c-.108.08-10.837,8.075-12.206,17.446a12.869,12.869,0,0,0,2.667,9.894c9.924,13.155,44.6-.875,63.525-11.238,11.436-6.262,19.676-12.45,24.493-18.39,5.757-7.1,6.78-13.79,3.128-20.45C1508.22,2120.368,1461.052,2131.432,1442.877,2136.834Z">
        </path>
    </g>
    <g data-name="Group 72" transform="translate(-1400.924 -2065.56)">
        <path data-name="Path 108" d="M1461.806,2066.439l24.484,17.906,3.167,63.343-3.167,6.822-13.156,8.04-16.81,4.385h-10.476L1402,2124.3l5.6-33.62,4.142-7.8,18.516-11.694,16.567-4.629,14.423.106-4.19,10.857-18.516,10.719-19.49,6.091-11.45-3.654" fill="#FC212E" fill-rule="evenodd"></path>
        <path data-name="Path 109" d="M1456.453,2167.934h-11.01l-44.519-43.282,5.716-34.3,4.343-8.175,19.005-11.953,16.7-4.667,15.675.115.031-.043.061.044.243,0-.053.137,24.618,18.005,3.2,64.065-3.4,7.32-13.683,8.312Zm-10.2-2h9.942l16.542-4.315,12.772-7.8,2.936-6.323-3.131-62.62-23.415-17.124-4.039,10.466-19.024,10.985-19.791,6.185-10.651-3.4-5.327,31.964Zm-37.21-75.843,10.008,3.194,19.082-5.963,18.114-10.487,3.543-9.179-12.835-.094-16.29,4.551-18.167,11.474Z">
        </path>
    </g>
    <path data-name="Path 110" d="M1482.169,2102.008l-25.792-23.749,1.355-1.471,23.421,21.566,4.177-14.289,1.919.561Z" transform="translate(-1400.924 -2065.56)"></path>
    <g data-name="Group 73" transform="translate(-1400.924 -2065.56)">
        <path data-name="Path 111" d="M1455.35,2166.447l-35.082-38.249-1.218-34.838" fill="#FC212E" fill-rule="evenodd"></path>
        <path data-name="Path 112" d="M1454.613,2167.123l-35.332-38.521-1.231-35.207,2-.07,1.205,34.469,34.833,37.977Z">
        </path>
    </g>
    <path data-name="Path 113" d="M1472.231,2162.977l-19.977-42.147-14.624-32.173,1.821-.828,14.617,32.158,19.97,42.133Z" transform="translate(-1400.924 -2065.56)"></path>
    <path data-name="Path 114" d="M1484.318,2154.577l-3.534-52.547-27.206,19.3-33.3,7.893-18.492-3.945.417-1.956,18.052,3.851,32.481-7.7,29.8-21.141,3.774,56.11Z" transform="translate(-1400.924 -2065.56)"></path>
</svg>