<svg xmlns="http://www.w3.org/2000/svg" width="65.261" height="126.21" viewBox="0 0 65.261 126.21">
  <g id="Group_434" data-name="Group 434" transform="translate(-2588.489 -380.719)">
    <path id="Path_422" data-name="Path 422" d="M2611.43,385.533,2598.3,432.416l10.314,5-11.877,28.443,7.5,4.688-15,35.631,11.877-4.376L2628,437.417l5.313-49.7-10-6.251Z" fill="#fbc936" stroke="#000" stroke-linecap="round" stroke-linejoin="round" stroke-width="1.5"/>
    <path id="Path_423" data-name="Path 423" d="M2623.307,381.469,2609.555,427.1l10.627,5.313-12.19,28.443,7.5,4.063L2601.116,501.8l33.756-42.508-8.439-6.564,20-24.692-11.252-6.564L2653,391.471Z" fill="#fbc936" stroke="#000" stroke-linecap="round" stroke-linejoin="round" stroke-width="1.5"/>
    <line id="Line_33" data-name="Line 33" y1="4.757" x2="10.929" transform="translate(2599.035 427.129)" fill="#fbc936" stroke="#000" stroke-linecap="round" stroke-linejoin="round" stroke-width="1.5"/>
    <line id="Line_34" data-name="Line 34" y1="5.811" x2="12.03" transform="translate(2608.152 432.416)" fill="#fbc936" stroke="#000" stroke-linecap="round" stroke-linejoin="round" stroke-width="1.5"/>
    <line id="Line_35" data-name="Line 35" y1="5.153" x2="10.816" transform="translate(2597.053 460.425)" fill="#fbc936" stroke="#000" stroke-linecap="round" stroke-linejoin="round" stroke-width="1.5"/>
    <line id="Line_36" data-name="Line 36" y1="6.036" x2="11.419" transform="translate(2604.075 464.922)" fill="#fbc936" stroke="#000" stroke-linecap="round" stroke-linejoin="round" stroke-width="1.5"/>
  </g>
</svg>
