<svg data-name="flower badge"
    xmlns="http://www.w3.org/2000/svg" viewBox="0 0 162.981 166.171">
    <path data-name="Path 115" d="M515.16,2228.939c-6.98,0-13.235-3.487-17.61-9.819a39.008,39.008,0,0,1-5.17-11.348l-1.955-9.419-6.207,6.207c-5.732,4.576-10.883,7.8-17.109,7.8a28.723,28.723,0,0,1-15.793-5.066c-4.311-2.813-11.451-8.953-10.863-18.479.337-5.457,3-10.827,8.146-16.418l5.537-6.017-8.024-1.572c-8.894-1.743-15.506-5.028-19.653-9.765-4.116-4.7-5.811-10.785-4.9-17.6,1.727-12.95,11.029-20.9,25.522-21.8l6.95-.434-3.156-6.207c-3.02-5.939-4.347-11.491-3.945-16.5.385-4.81,2.566-11.675,10.766-17.06a23.726,23.726,0,0,1,13.083-4.236c6.87,0,13,3.16,18.744,9.66l4.869,5.511,2.793-6.8a31.572,31.572,0,0,1,5.277-8.793,23.075,23.075,0,0,1,17.923-8.017,31.3,31.3,0,0,1,4.513.339c8.388,1.228,14.213,5.207,17.315,11.828,1.97,4.2,2.622,9.5,1.939,15.741l-.8,7.359,6.942-2.57a28.261,28.261,0,0,1,9.745-1.913c7.052,0,13.321,3.434,17.654,9.669,5.86,8.433,6.968,17.535,3.119,25.628-2.477,5.208-6.843,9.875-12.976,13.87l-6.274,4.086,6.5,3.719a35.706,35.706,0,0,1,12.022,10.494c4.255,6.246,5.321,13.638,3.081,21.376-2.9,10.022-9.981,15.542-19.938,15.544-4.887,0-10.449-1.383-16.538-4.112l-7.009-3.141.575,7.66a35.056,35.056,0,0,1-1.663,14.681,23.273,23.273,0,0,1-13.129,13.652,26.432,26.432,0,0,1-10.29,2.261Z" transform="translate(-421.317 -2062.768)" fill="#fff"></path>
    <g data-name="Group 75" transform="translate(-421.317 -2062.768)">
        <path data-name="Path 116" d="M500.957,2122.559s-7.9-57.174,22.945-52.66,0,54.917,0,54.917,32.725-39.871,48.148-17.679-15.046,37.991-39.872,39.872c0,0,52.661,4.89,44.385,33.477s-54.917-9.027-54.917-15.8c0,0,25.954,45.138,1.128,55.67s-30.092-30.092-22.945-48.523c0,0-25.579,43.633-44.762,29.716-26.178-18.993,25.2-43.257,25.2-43.257s-55.028,8.353-51.908-19.936c2.82-25.578,42.973-12.131,55.669-3.762,0,0-47.77-36.862-22.568-53.413S500.957,2122.559,500.957,2122.559Z" fill="#fff"></path>
        <path data-name="Path 117" d="M515.175,2223.078a14.34,14.34,0,0,1-10.25-4.234c-8.383-8.124-10.717-26.905-7.936-40.736-1.784,2.606-4.126,5.836-6.844,9.128-8.47,10.26-16.368,16.217-23.473,17.7a14.822,14.822,0,0,1-12.2-2.569c-5.657-4.1-8.28-8.812-7.8-13.994,1.136-12.144,19.2-23.5,28.191-28.435-10.5.963-32.953,1.739-42.837-7.75-3.73-3.58-5.3-8.273-4.678-13.947.718-6.5,3.788-11.073,9.125-13.579,10.449-4.907,27.842-.638,39.738,4.632-9.126-8.282-23.584-23.477-23.1-36.251.2-5.172,2.817-9.45,7.787-12.713,5.011-3.292,10-4,14.82-2.108,11.6,4.55,19.5,23.114,23.406,34.67-.511-11.621.224-30.481,9.189-39.375,4.04-4.007,9.332-5.564,15.73-4.628,6.321.925,10.649,3.792,12.865,8.522,5.222,11.145-2.658,29.913-7.976,40.365,7.366-7.5,20.432-18.822,31.759-18.367,4.929.2,9.029,2.6,12.186,7.144,4.747,6.829,5.635,13.484,2.642,19.778-5.107,10.737-20.742,18.045-35.8,20.73,10.249,1.842,28.2,6.5,35.516,17.246,3.288,4.825,4.061,10.361,2.3,16.457-2.47,8.53-8.56,12.362-17.612,11.077-10.963-1.555-24.62-10.476-32.608-17.966.911,2.07,1.86,4.376,2.755,6.823,4.567,12.489,5.646,22.509,3.205,29.78a17.353,17.353,0,0,1-10.108,10.81A20.537,20.537,0,0,1,515.175,2223.078Zm-16.222-51.757,1.823.881c-5.049,13.02-3.474,36.427,5.562,45.184,4.21,4.08,9.607,4.766,16.039,2.037a15.4,15.4,0,0,0,8.976-9.584c4.284-12.757-4.45-32.59-8.584-40.843-1.366-1.771-2.139-3.27-2.139-4.308v-3.8l1.9,3.3c.018.031.8,1.393,1.947,3.671,5.392,6.629,21.826,20.009,35.739,21.982,8.023,1.138,13.2-2.1,15.376-9.631,1.588-5.485.907-10.447-2.023-14.747-9.762-14.329-41.165-17.407-41.481-17.437L532.1,2146c21.674-1.642,37.328-11.572,41.59-20.533,2.658-5.588,1.825-11.559-2.475-17.747-2.775-3.993-6.341-6.1-10.6-6.274-15.5-.644-35.727,23.771-35.93,24.017l-1.651-1.174c.191-.311,18.946-31.272,12.039-46.01-1.909-4.072-5.717-6.553-11.32-7.373-5.731-.838-10.443.527-14.005,4.06-12.465,12.363-7.836,47.108-7.787,47.457l-1.992.383c-.09-.364-9.173-36.482-24.99-42.686-4.173-1.637-8.534-.993-12.962,1.915-4.389,2.883-6.7,6.615-6.873,11.092-.656,17.183,29.2,40.436,29.505,40.669l-1.18,1.651c-9.461-6.237-33.643-14.8-46.131-8.939-4.654,2.185-7.336,6.211-7.97,11.964-.553,5.013.815,9.138,4.064,12.258,12.129,11.646,46.339,6.615,46.683,6.563l6.853-1.039-6.267,2.961c-.306.144-30.631,14.635-32.006,29.356-.412,4.416,1.932,8.508,6.967,12.161a12.873,12.873,0,0,0,10.59,2.225C482.2,2199.616,498.787,2171.6,498.953,2171.321Z">
        </path>
    </g>
    <g data-name="Group 76" transform="translate(-421.317 -2062.768)">
        <circle data-name="Ellipse 7" cx="27.365" cy="27.365" r="27.365" transform="translate(479.209 2118.704)" fill="#fbc936"></circle>
        <path data-name="Path 118" d="M506.573,2174.449a28.38,28.38,0,1,1,28.381-28.38A28.412,28.412,0,0,1,506.573,2174.449Zm0-54.73a26.349,26.349,0,1,0,26.35,26.35A26.38,26.38,0,0,0,506.573,2119.719Z">
        </path>
    </g>
    <path data-name="Path 119" d="M506.573,2166.7a20.656,20.656,0,0,1-20.632-20.632h2.031a18.6,18.6,0,0,0,37.2,0h2.031A20.656,20.656,0,0,1,506.573,2166.7Z" transform="translate(-421.317 -2062.768)"></path>
    <g data-name="Group 77" transform="translate(-421.317 -2062.768)">
        <circle data-name="Ellipse 8" cx="4.326" cy="4.326" r="4.326" transform="translate(495.943 2137.699)"></circle>
        <circle data-name="Ellipse 9" cx="4.326" cy="4.326" r="4.326" transform="translate(508.553 2137.699)"></circle>
    </g>
</svg>