<?xml version="1.0" encoding="utf-8"?>
<!-- Generator: Adobe Illustrator 23.0.1, SVG Export Plug-In . SVG Version: 6.00 Build 0)  -->
<svg version="1.1" id="diamond_2_badge" xmlns="http://www.w3.org/2000/svg" xmlns:xlink="http://www.w3.org/1999/xlink" x="0px"
	 y="0px" viewBox="0 0 67.8 60.6" style="enable-background:new 0 0 67.8 60.6;" xml:space="preserve">
<g id="Group_306" transform="translate(-928.099 -4636.302)">
	<path id="Path_364" style="fill:#FC212E;" d="M944.8,4637.2l16.7,7.1l16.7-7.1l16.8,16l-7.1,26.9l-26,16l-26.8-16.2l-6.3-26.6
		L944.8,4637.2z"/>
	<path id="Path_365" d="M962,4696.9l-27.4-16.6l-6.5-27.3l16.5-16.6l16.9,7.1l16.9-7.1l17.5,16.6l-7.3,27.6L962,4696.9z
		 M935.9,4679.3l26.1,15.8l25.4-15.6l6.9-26.2l-16.2-15.3l-16.6,7l-16.5-7l-15.2,15.3L935.9,4679.3z"/>
</g>
<g id="Group_307" transform="translate(-928.099 -4636.302)">
	<path id="Path_366" style="fill:#FC212E;" d="M961.4,4655.5l13.9-5.6l8.5,7.2l-4.6,15.4l-17.5,11.5c0,0-18-11-18-11.4
		s-3.7-16-3.7-16l7.7-6.8L961.4,4655.5z"/>
	<path id="Path_367" d="M961.8,4684.9l-0.4-0.3c-18.3-11.2-18.3-11.5-18.3-12c-0.1-0.5-2.3-9.8-3.7-15.8l-0.1-0.4l8.4-7.4l13.8,5.8
		l14-5.6l9.3,7.8l-4.8,16.1L961.8,4684.9z M944.5,4672.2c1.4,1,11,7,17.3,10.9l16.8-11.1l4.4-14.6l-7.8-6.6l-13.7,5.5l-13.5-5.6
		l-7,6.2C943.6,4668.3,944.3,4671.4,944.5,4672.2L944.5,4672.2z"/>
</g>
<g id="Group_308" transform="translate(-928.099 -4636.302)">
	<path id="Path_368" style="fill:#EE3A45;" d="M944.8,4637.2l16.7,7.1l16.7-7.1l16.8,16l-7.1,26.9l-26,16l-26.8-16.2l-6.3-26.6
		L944.8,4637.2z"/>
	<path id="Path_369" d="M962,4696.9l-27.4-16.6l-6.5-27.3l16.5-16.6l16.9,7.1l16.9-7.1l17.5,16.6l-7.3,27.6L962,4696.9z
		 M935.9,4679.3l26.1,15.8l25.4-15.6l6.9-26.2l-16.2-15.3l-16.6,7l-16.5-7l-15.2,15.3L935.9,4679.3z"/>
</g>
<g id="Group_309" transform="translate(-928.099 -4636.302)">
	<path id="Path_370" style="fill:#FBC936;" d="M961.4,4655.5l13.9-5.6l8.5,7.2l-4.6,15.4l-17.5,11.5c0,0-18-11-18-11.4
		s-3.7-16-3.7-16l7.7-6.8L961.4,4655.5z"/>
	<path id="Path_371" d="M961.8,4684.8c-0.1,0-0.3,0-0.4-0.1c-18.3-11.2-18.3-11.5-18.3-12c-0.1-0.5-2.3-9.8-3.7-15.8
		c-0.1-0.3,0-0.6,0.2-0.7l7.7-6.8c0.2-0.2,0.5-0.2,0.8-0.1l13.3,5.6l13.6-5.5c0.3-0.1,0.6-0.1,0.8,0.1l8.5,7.2
		c0.2,0.2,0.3,0.5,0.2,0.8l-4.6,15.4c0,0.2-0.2,0.3-0.3,0.4l-17.5,11.5C962,4684.7,961.9,4684.8,961.8,4684.8z M944.5,4672.2
		c1.4,1,11,7,17.3,10.9l16.8-11.1l4.4-14.6l-7.8-6.6l-13.5,5.4c-0.2,0.1-0.4,0.1-0.6,0l-13.2-5.5l-7,6.2
		C943.6,4668.3,944.3,4671.4,944.5,4672.2L944.5,4672.2z"/>
</g>
<g id="Group_310" transform="translate(-928.099 -4636.302)">
	<line id="Line_17" style="fill:none;" x1="961.5" y1="4644.3" x2="961.4" y2="4655.5"/>
	
		<rect id="Rectangle_42" x="955.8" y="4649.1" transform="matrix(1.106521e-02 -0.9999 0.9999 1.106521e-02 -3698.7969 5559.8208)" width="11.3" height="1.5"/>
</g>
<g id="Group_311" transform="translate(-928.099 -4636.302)">
	<line id="Line_18" style="fill:none;" x1="944.8" y1="4637.2" x2="947.8" y2="4649.8"/>
	
		<rect id="Rectangle_43" x="945.5" y="4637" transform="matrix(0.9734 -0.2291 0.2291 0.9734 -1038.6373 340.284)" width="1.5" height="13"/>
</g>
<g id="Group_312" transform="translate(-928.099 -4636.302)">
	<line id="Line_19" style="fill:none;" x1="928.9" y1="4653.2" x2="940.1" y2="4656.6"/>
	
		<rect id="Rectangle_44" x="933.8" y="4649.1" transform="matrix(0.297 -0.9549 0.9549 0.297 -3787.9258 4164.9043)" width="1.5" height="11.7"/>
</g>
<g id="Group_313" transform="translate(-928.099 -4636.302)">
	<line id="Line_20" style="fill:none;" x1="978.2" y1="4637.2" x2="975.3" y2="4649.9"/>
	
		<rect id="Rectangle_45" x="970.2" y="4642.8" transform="matrix(0.2272 -0.9738 0.9738 0.2272 -3767.3047 4539.772)" width="13.1" height="1.5"/>
</g>
<g id="Group_314" transform="translate(-928.099 -4636.302)">
	<line id="Line_21" style="fill:none;" x1="995.1" y1="4653.2" x2="983.8" y2="4657.1"/>
	
		<rect id="Rectangle_46" x="983.5" y="4654.4" transform="matrix(0.9432 -0.3321 0.3321 0.9432 -1489.7649 592.7663)" width="11.9" height="1.5"/>
</g>
<g id="Group_315" transform="translate(-928.099 -4636.302)">
	<line id="Line_22" style="fill:none;" x1="988" y1="4680.1" x2="979.2" y2="4672.5"/>
	
		<rect id="Rectangle_47" x="982.9" y="4670.5" transform="matrix(0.6521 -0.7581 0.7581 0.6521 -3203.0129 2372.542)" width="1.5" height="11.6"/>
</g>
<g id="Group_316" transform="translate(-928.099 -4636.302)">
	<line id="Line_23" style="fill:none;" x1="962" y1="4696" x2="961.8" y2="4684"/>
	
		<rect id="Rectangle_48" x="961.1" y="4684" transform="matrix(0.9998 -2.061088e-02 2.061088e-02 0.9998 -96.4612 20.8214)" width="1.5" height="12"/>
</g>
<g id="Group_317" transform="translate(-928.099 -4636.302)">
	<line id="Line_24" style="fill:none;" x1="935.2" y1="4679.8" x2="943.8" y2="4672.6"/>
	
		<rect id="Rectangle_49" x="933.9" y="4675.5" transform="matrix(0.7656 -0.6433 0.6433 0.7656 -2788.1873 1700.6685)" width="11.2" height="1.5"/>
</g>
</svg>
