<svg xmlns="http://www.w3.org/2000/svg" width="78.192" height="73.945" viewBox="0 0 78.192 73.945">
  <g id="Group_453" data-name="Group 453" transform="translate(-2292.538 -353.282)">
    <path id="Path_457" data-name="Path 457" d="M2366.549,390.53c-6.678,12.852-32.543,35.929-35.553,35.947s-34.881-22.42-37.443-43.727c-2.41-20.058,12.984-28.352,20.3-28.7,9.531-.449,18.244,7.188,18.244,7.188s9.916-8.886,22.223-6.054C2370.161,358.826,2373.223,377.682,2366.549,390.53Z" fill="#fc212e" stroke="#000" stroke-miterlimit="10" stroke-width="1.5"/>
    <path id="Path_458" data-name="Path 458" d="M2331.088,376.9l10.136-6.081,13.453,15.3-22.83,23.629L2307.868,386.3l13.453-15.48Z" fill="#fd89ac" stroke="#000" stroke-linecap="round" stroke-linejoin="round" stroke-width="1.5"/>
    <line id="Line_37" data-name="Line 37" y1="15.112" x2="0.645" transform="translate(2331.457 361.24)" fill="#fbc936" stroke="#000" stroke-linecap="round" stroke-linejoin="round" stroke-width="1.5"/>
    <line id="Line_38" data-name="Line 38" y1="14.927" x2="14.927" transform="translate(2341.224 355.895)" fill="#fbc936" stroke="#000" stroke-linecap="round" stroke-linejoin="round" stroke-width="1.5"/>
    <line id="Line_39" data-name="Line 39" y1="0.114" x2="13.617" transform="translate(2354.124 386.188)" fill="#fbc936" stroke="#000" stroke-linecap="round" stroke-linejoin="round" stroke-width="1.5"/>
    <line id="Line_40" data-name="Line 40" x1="0.863" y2="16.405" transform="translate(2330.984 409.748)" fill="#fbc936" stroke="#000" stroke-linecap="round" stroke-linejoin="round" stroke-width="1.5"/>
    <line id="Line_41" data-name="Line 41" x1="20.64" y2="34.462" transform="translate(2310.817 376.351)" fill="#fbc936" stroke="#000" stroke-linecap="round" stroke-linejoin="round" stroke-width="1.5"/>
    <line id="Line_42" data-name="Line 42" x1="13.395" y1="0.238" transform="translate(2294.473 386.065)" fill="#fbc936" stroke="#000" stroke-linecap="round" stroke-linejoin="round" stroke-width="1.5"/>
    <line id="Line_43" data-name="Line 43" x2="13.65" y2="14.731" transform="translate(2307.671 356.092)" fill="#fbc936" stroke="#000" stroke-linecap="round" stroke-linejoin="round" stroke-width="1.5"/>
    <line id="Line_44" data-name="Line 44" x2="20.125" y2="32.286" transform="translate(2331.457 376.351)" fill="#fbc936" stroke="#000" stroke-linecap="round" stroke-linejoin="round" stroke-width="1.5"/>
  </g>
</svg>
