<svg xmlns="http://www.w3.org/2000/svg" width="165.741" height="98.417" viewBox="0 0 165.741 98.417">
    <g id="sunnglasses_badge" data-name="sunnglasses badge" transform="matrix(0.995, 0.105, -0.105, 0.995, 8.608, 0)">
        <g id="Group_115" data-name="Group 115" transform="translate(-485.338 -2743.979)">
            <path id="Path_127" data-name="Path 127" d="M563.677,2773.956c9.51-2.269,20.824-13.881,36.084-21.038s41.14-10.646,42.381-5.9-.876,31.218-4.1,40.551-11.229,12.692-19.865,14.752-27.5,3.472-35.267-4.8-8.368-12.8-13.552-11.345-5.055,9.421-7.05,14.676-3.7,13.312-25.967,21.47-26.794-1.69-30.732-5.932-17.31-22.369-18.884-26.154.292-7.1,5.055-9.421,25.589-7.951,35.055-8.379C538.709,2771.908,557.2,2775.5,563.677,2773.956Z" fill="#fc212e" fill-rule="evenodd"/>
            <path id="Path_128" data-name="Path 128" d="M521.5,2826.332c-8.752,0-12.456-4.5-15.194-7.821-.459-.558-.889-1.081-1.312-1.536-3.833-4.13-17.409-22.472-19.045-26.406-1.725-4.147.268-7.977,5.466-10.506,4.76-2.316,25.715-8.025,35.387-8.463,5.6-.252,12.489.387,19.156,1.006,7.3.679,14.205,1.32,17.526.527,4.888-1.166,10.353-4.937,16.681-9.3,5.628-3.883,12.007-8.285,19.241-11.677,13.347-6.26,35.616-10.089,41.8-7.188a2.92,2.92,0,0,1,1.754,1.845c1.256,4.808-.76,31.317-4.118,41.04-3.455,10-12.285,13.347-20.468,15.3-7.121,1.7-27.484,4.1-36.079-5.04a87.659,87.659,0,0,1-5.645-6.712c-3.156-4.065-4.194-5.2-7.063-4.4-3.21.9-4.12,4.866-5.083,9.065a39.747,39.747,0,0,1-1.405,5.1c-.118.313-.236.635-.357.968-1.916,5.254-4.811,13.194-26.11,21C530.335,2825.432,525.41,2826.332,521.5,2826.332Zm7.97-53.1q-1.338,0-2.592.055c-9.5.43-30.059,6.025-34.723,8.294-3.077,1.5-6.381,4.159-4.644,8.336,1.44,3.463,14.655,21.522,18.723,25.9.444.478.9,1.026,1.378,1.612,3.659,4.441,9.188,11.154,28.443,4.1,20.56-7.532,23.185-14.731,25.1-19.988q.184-.509.365-.989a38.508,38.508,0,0,0,1.337-4.874c1.031-4.5,2.1-9.146,6.276-10.316,4.092-1.145,5.784,1.034,8.855,4.989a85.834,85.834,0,0,0,5.542,6.592c7.143,7.6,24.924,6.826,34.454,4.552,8.125-1.938,16.082-5,19.261-14.2,3.2-9.269,5.267-35.519,4.081-40.061-.086-.329-.5-.584-.836-.741-5.173-2.426-26.924.883-40.368,7.188-7.107,3.333-13.424,7.692-19,11.538-6.468,4.463-12.054,8.317-17.249,9.557l-.2-.823.2.823c-3.592.857-10.3.233-18.076-.488C540.2,2773.77,534.429,2773.235,529.466,2773.235Z"/>
        </g>
        <g id="Group_116" data-name="Group 116" transform="translate(-485.338 -2743.979)">
            <path id="Path_129" data-name="Path 129" d="M601.921,2762.309c13.248-5.8,26.8-9.293,29.6.859s.286,20.625-1.264,24.592-8.743,6.4-18.05,8.9c-13.049,3.506-28.069-3.21-30.568-11.1S590.885,2767.143,601.921,2762.309Z" fill="#fbc936" fill-rule="evenodd"/>
            <path id="Path_130" data-name="Path 130" d="M604.773,2798.455a33.527,33.527,0,0,1-12.112-2.282c-6.107-2.386-10.528-6.257-11.826-10.354-1.253-3.953.565-8.659,5.257-13.609a49.992,49.992,0,0,1,15.489-10.675c12.461-5.459,20.963-6.948,25.99-4.553a8.845,8.845,0,0,1,4.767,5.961c2.784,10.1.5,20.546-1.292,25.125-1.61,4.121-8.046,6.571-18.617,9.411A29.6,29.6,0,0,1,604.773,2798.455Zm17.117-40.908c-4.691,0-11.18,1.836-19.63,5.537-11.154,4.886-22.034,15.215-19.813,22.225,2.779,8.768,19,13.37,29.543,10.536,8.028-2.156,15.991-4.581,17.481-8.393,1.6-4.083,3.908-14.366,1.237-24.059a7.131,7.131,0,0,0-3.865-4.884A11.457,11.457,0,0,0,621.89,2757.547Z"/>
        </g>
        <g id="Group_117" data-name="Group 117" transform="translate(-485.338 -2743.979)">
            <path id="Path_131" data-name="Path 131" d="M502.308,2793.1c3.109-7.954,12.083-12.037,28.894-13.255s24.927,5.007,25.5,11.69-3.089,16.764-15.207,22.125-24.6,6.363-30.047.428C507.125,2809.379,500.758,2797.072,502.308,2793.1Z" fill="#fbc936" fill-rule="evenodd"/>
            <path id="Path_132" data-name="Path 132" d="M523.062,2818.977c-5.3,0-9.6-1.436-12.236-4.312-4.23-4.611-11.064-17.368-9.3-21.868,3.239-8.288,12.374-12.541,29.62-13.791,17.393-1.261,25.794,5.351,26.4,12.461.66,7.684-3.941,17.766-15.707,22.971C535,2817.462,528.505,2818.976,523.062,2818.977Zm12.284-38.436q-1.945,0-4.083.152c-16.51,1.2-25.2,5.12-28.167,12.72h0c-1.284,3.287,4.422,15.144,8.977,20.109,4.775,5.205,16.462,4.951,29.081-.631,11-4.867,15.314-14.194,14.706-21.279C555.368,2785.881,548.82,2780.541,535.346,2780.541Z"/>
        </g>
    </g>
</svg>
